<svg width="294" height="111" viewBox="0 0 294 111" fill="none" xmlns="http://www.w3.org/2000/svg">
<g clip-path="url(#clip0_2_547)">
<path d="M157.996 58.9956V57.4151C163.208 55.3086 166.413 50.8344 166.413 43.4634V42.4087C166.413 32.5807 159.076 26 147.147 26L118.824 26.0475L118.785 86.8128H131.971V64.2602H150.309C152.293 64.2602 153.9 65.8586 153.9 67.8253V86.8128H166.888V67.3322C166.888 62.4182 162.679 59.2571 157.996 58.9956V58.9956ZM151.826 45.9412C151.826 49.7143 149.316 52.204 145.043 52.204H131.929V39.0039H145.043C149.388 39.0039 151.826 41.4966 151.826 45.2668V45.9412V45.9412Z" fill="black"/>
<path d="M99.1219 26.0029V86.8128H85.9538V55.0531H75.1106C73.845 55.0531 72.6242 55.5225 71.6847 56.3633C71.1491 56.8446 70.7302 57.4269 70.443 58.0686C70.1558 58.7104 70.0032 59.4115 70.0032 60.1275V67.4599C70.0032 69.4267 68.3934 71.025 66.4127 71.025H57.646C55.6622 71.025 54.0555 69.4267 54.0555 67.4599V58.6183C54.0555 56.6485 55.6622 55.0531 57.646 55.0531H65.527C66.5832 55.0531 67.6005 54.6817 68.4084 54.0103C68.9141 53.5884 69.312 53.0655 69.5843 52.4832C69.8566 51.9039 70.0002 51.2651 70.0002 50.6115V39.0782H38.1348V26.0029H99.1219Z" fill="black"/>
<path d="M54.058 78.9457V79.0824C54.058 83.4557 50.4855 87 46.0842 87C41.6829 87 38.1104 83.4557 38.1104 79.0824V78.9457C38.1104 74.5724 41.6799 71.0281 46.0842 71.0281C48.2834 71.0281 50.279 71.9134 51.7212 73.3454C53.1664 74.7804 54.058 76.7591 54.058 78.9457Z" fill="black"/>
<path d="M227.902 39.0812V50.9621H253.523V62.9737H231.394C229.464 62.9737 227.902 64.5246 227.902 66.4409V86.8128H214.731V26H218.223L257.871 26.003V39.0812H227.902V39.0812Z" fill="black"/>
<path d="M196.86 37.465V75.6836H204.78V87H175.562V75.6836H183.482V37.465H175.562V26H204.78V37.465H196.86Z" fill="black"/>
</g>
<defs>
<clipPath id="clip0_2_547">
<rect width="220" height="61" fill="white" transform="translate(38 26)"/>
</clipPath>
</defs>
</svg>
