<svg width="538" height="150" viewBox="0 0 538 150" fill="none" xmlns="http://www.w3.org/2000/svg">
<g clip-path="url(#clip0_1_529)">
<path d="M292.994 81.1368V77.2501C305.72 72.0704 313.545 61.0681 313.545 42.9427V40.3492C313.545 16.1821 295.631 0 266.504 0L197.348 0.116891L197.253 149.54H229.449V94.0824H274.226C279.069 94.0824 282.993 98.0128 282.993 102.849V149.54H314.706V101.636C314.706 89.5529 304.427 81.7797 292.994 81.1368V81.1368ZM277.93 49.0356C277.93 58.3138 271.8 64.436 261.368 64.436H229.347V31.9769H261.368C271.976 31.9769 277.93 38.1064 277.93 47.3773V49.0356V49.0356Z" fill="white"/>
<path d="M149.24 0.00732422V149.54H117.088V71.4422H90.6121C87.5218 71.4422 84.5411 72.5964 82.2471 74.664C80.9394 75.8475 79.9166 77.2794 79.2152 78.8574C78.5139 80.4354 78.1413 82.1596 78.1413 83.9202V101.951C78.1413 106.787 74.2109 110.717 69.3745 110.717H47.9689C43.1252 110.717 39.2021 106.787 39.2021 101.951V80.209C39.2021 75.3653 43.1252 71.4422 47.9689 71.4422H67.212C69.7909 71.4422 72.2748 70.5289 74.2474 68.8779C75.482 67.8405 76.4537 66.5547 77.1185 65.1228C77.7833 63.6981 78.134 62.1274 78.134 60.5202V32.1596H0.328613V0.00732422H149.24Z" fill="white"/>
<path d="M39.2095 130.194V130.531C39.2095 141.284 30.4865 150 19.7399 150C8.99325 150 0.270264 141.284 0.270264 130.531V130.194C0.270264 119.441 8.98594 110.725 19.7399 110.725C25.1096 110.725 29.9824 112.902 33.5037 116.423C37.0324 119.952 39.2095 124.817 39.2095 130.194Z" fill="white"/>
<path d="M463.683 32.1669V61.3822H526.242V90.919H472.209C467.497 90.919 463.683 94.7326 463.683 99.4448V149.54H431.524V0H440.05L536.857 0.00730567V32.1669H463.683V32.1669Z" fill="white"/>
<path d="M387.887 28.1926V122.173H407.225V150H335.885V122.173H355.224V28.1926H335.885V0H407.225V28.1926H387.887Z" fill="white"/>
</g>
<defs>
<clipPath id="clip0_1_529">
<rect width="537.171" height="150" fill="white"/>
</clipPath>
</defs>
</svg>
