<svg width="91" height="24" viewBox="0 0 91 24" fill="none" xmlns="http://www.w3.org/2000/svg">
<path d="M49.643 12.9819V12.36C51.8013 11.5313 53.1282 9.77089 53.1282 6.87084V6.45587C53.1282 2.58913 50.0903 0 45.1505 0L33.4224 0.0187025L33.4062 23.9264H38.8664V15.0532H46.4601C47.2815 15.0532 47.9468 15.6821 47.9468 16.4559V23.9264H53.3252V16.2618C53.3252 14.3285 51.582 13.0847 49.643 12.9819ZM47.0882 7.8457C47.0882 9.33022 46.0487 10.3098 44.2795 10.3098H38.8491V5.11631H44.2795C46.0785 5.11631 47.0882 6.09702 47.0882 7.58036V7.8457Z" fill="white"/>
<path d="M25.264 0.00115967V23.9264H19.8113V11.4307H15.3212C14.7971 11.4307 14.2916 11.6154 13.9026 11.9462C13.6808 12.1356 13.5074 12.3647 13.3884 12.6172C13.2695 12.8697 13.2063 13.1455 13.2063 13.4272V16.3121C13.2063 17.0859 12.5397 17.7148 11.7195 17.7148H8.08934C7.26791 17.7148 6.60258 17.0859 6.60258 16.3121V12.8334C6.60258 12.0584 7.26791 11.4307 8.08934 11.4307H11.3528C11.7902 11.4307 12.2114 11.2846 12.5459 11.0204C12.7553 10.8545 12.9201 10.6487 13.0328 10.4196C13.1456 10.1917 13.2051 9.94038 13.2051 9.68322V5.14552H0.0100098V0.00115967H25.264Z" fill="white"/>
<path d="M6.60372 20.8311V20.8848C6.60372 22.6055 5.12439 24 3.30186 24C1.47934 24 0 22.6055 0 20.8848V20.8311C0 19.1104 1.4781 17.7159 3.30186 17.7159C4.21251 17.7159 5.0389 18.0643 5.63608 18.6277C6.23451 19.1923 6.60372 19.9708 6.60372 20.8311Z" fill="white"/>
<path d="M78.5904 5.1467V9.82116H89.1998V14.547H80.0363C79.2372 14.547 78.5904 15.1572 78.5904 15.9112V23.9264H73.1365V0H74.5824L91 0.00116891V5.1467H78.5904Z" fill="white"/>
<path d="M65.736 4.51081V19.5476H69.0156V24H56.917V19.5476H60.1966V4.51081H56.917V0H69.0156V4.51081H65.736Z" fill="white"/>
</svg>
