<svg width="91" height="24" viewBox="0 0 91 24" fill="none" xmlns="http://www.w3.org/2000/svg">
<path d="M49.6431 12.9819V12.36C51.8014 11.5313 53.1284 9.77089 53.1284 6.87084V6.45587C53.1284 2.58913 50.0904 0 45.1506 0L33.4225 0.0187025L33.4064 23.9264H38.8666V15.0532H46.4602C47.2816 15.0532 47.947 15.6821 47.947 16.4559V23.9264H53.3254V16.2618C53.3254 14.3285 51.5821 13.0847 49.6431 12.9819ZM47.0884 7.8457C47.0884 9.33022 46.0489 10.3098 44.2796 10.3098H38.8492V5.11631H44.2796C46.0786 5.11631 47.0884 6.09702 47.0884 7.58036V7.8457Z" fill="black"/>
<path d="M25.2639 0.00112915V23.9263H19.8112V11.4307H15.3211C14.7971 11.4307 14.2915 11.6154 13.9025 11.9462C13.6807 12.1356 13.5073 12.3647 13.3883 12.6171C13.2694 12.8696 13.2062 13.1455 13.2062 13.4272V16.3121C13.2062 17.0859 12.5396 17.7147 11.7194 17.7147H8.08925C7.26781 17.7147 6.60248 17.0859 6.60248 16.3121V12.8334C6.60248 12.0584 7.26781 11.4307 8.08925 11.4307H11.3527C11.7901 11.4307 12.2113 11.2846 12.5458 11.0204C12.7552 10.8544 12.92 10.6487 13.0328 10.4196C13.1455 10.1917 13.205 9.94034 13.205 9.68319V5.14549H0.00991821V0.00112915H25.2639Z" fill="black"/>
<path d="M6.60372 20.8311V20.8848C6.60372 22.6054 5.12439 24 3.30186 24C1.47934 24 0 22.6054 0 20.8848V20.8311C0 19.1104 1.4781 17.7159 3.30186 17.7159C4.21251 17.7159 5.0389 18.0642 5.63608 18.6277C6.23451 19.1922 6.60372 19.9707 6.60372 20.8311Z" fill="black"/>
<path d="M78.5905 5.1467V9.82116H89.1998V14.547H80.0363C79.2372 14.547 78.5905 15.1572 78.5905 15.9112V23.9264H73.1365V0H74.5824L91 0.00116891V5.1467H78.5905Z" fill="black"/>
<path d="M65.7361 4.51081V19.5476H69.0157V24H56.9171V19.5476H60.1967V4.51081H56.9171V0H69.0157V4.51081H65.7361Z" fill="black"/>
</svg>
