<svg width="15" height="15" viewBox="0 0 15 15" fill="none" xmlns="http://www.w3.org/2000/svg">
  <path d="M7.97068 15H7.02929C6.26789 15 5.64841 14.3805 5.64841 13.6192V13.3007C5.32471 13.1972 5.0102 13.0667 4.70807 12.9103L4.48236 13.136C3.93571 13.6834 3.06006 13.6673 2.52929 13.1358L1.86393 12.4705C1.33222 11.9394 1.31692 11.064 1.8641 10.5174L2.08963 10.2919C1.93327 9.98977 1.80275 9.67532 1.69931 9.35156H1.38085C0.619482 9.35156 0 8.73211 0 7.97071V7.02929C0 6.26789 0.619482 5.64844 1.38088 5.64844H1.69934C1.80278 5.32471 1.9333 5.01023 2.08966 4.7081L1.86396 4.48242C1.3171 3.93615 1.33219 3.0607 1.86413 2.52935L2.52955 1.86396C3.06155 1.33122 3.937 1.31792 4.4826 1.86413L4.7081 2.08963C5.01023 1.9333 5.32474 1.80275 5.64844 1.69931V1.38085C5.64844 0.619453 6.26789 0 7.02932 0H7.97071C8.73211 0 9.35156 0.619453 9.35156 1.38085V1.69934C9.67526 1.80275 9.98977 1.9333 10.2919 2.08966L10.5176 1.86396C11.0643 1.31663 11.9399 1.33269 12.4707 1.86416L13.136 2.52949C13.6678 3.06062 13.683 3.93598 13.1359 4.48257L12.9103 4.7081C13.0667 5.01023 13.1972 5.32468 13.3007 5.64844H13.6191C14.3805 5.64844 15 6.26789 15 7.02929V7.97071C15 8.73211 14.3805 9.35156 13.6191 9.35156H13.3007C13.1972 9.67529 13.0667 9.98977 12.9103 10.2919L13.136 10.5176C13.6829 11.0639 13.6678 11.9393 13.1359 12.4707L12.4704 13.1361C11.9384 13.6688 11.063 13.6821 10.5174 13.1359L10.2919 12.9104C9.98977 13.0667 9.67526 13.1973 9.35156 13.3007V13.6192C9.35156 14.3805 8.73211 15 7.97068 15ZM4.85499 11.9874C5.27473 12.2356 5.72648 12.4232 6.1977 12.5448C6.39176 12.5948 6.52734 12.7699 6.52734 12.9703V13.6192C6.52734 13.8959 6.75255 14.1211 7.02932 14.1211H7.97071C8.24748 14.1211 8.47268 13.8959 8.47268 13.6192V12.9703C8.47268 12.7699 8.60827 12.5948 8.80233 12.5448C9.27355 12.4232 9.7253 12.2356 10.145 11.9874C10.3177 11.8853 10.5376 11.913 10.6795 12.0549L11.1391 12.5146C11.3373 12.713 11.6555 12.7084 11.8488 12.5148L12.5146 11.849C12.7075 11.6564 12.7139 11.3381 12.5148 11.1393L12.055 10.6794C11.9131 10.5376 11.8854 10.3177 11.9875 10.145C12.2357 9.7253 12.4232 9.27354 12.5448 8.8023C12.5949 8.60824 12.7699 8.47268 12.9703 8.47268H13.6192C13.8959 8.47268 14.1211 8.24751 14.1211 7.97074V7.02932C14.1211 6.75255 13.8959 6.52737 13.6192 6.52737H12.9703C12.7699 6.52737 12.5949 6.39179 12.5448 6.19775C12.4232 5.72651 12.2357 5.27476 11.9875 4.85505C11.8854 4.68237 11.9131 4.46247 12.055 4.32062L12.5146 3.86098C12.7133 3.66252 12.7081 3.34436 12.5148 3.15126L11.849 2.48549C11.6561 2.29225 11.3378 2.28659 11.1393 2.48531L10.6795 2.94513C10.5377 3.08701 10.3177 3.11479 10.1451 3.01266C9.72533 2.76442 9.27357 2.57689 8.80236 2.45528C8.6083 2.40521 8.47271 2.2302 8.47271 2.02978V1.38085C8.47271 1.10408 8.24751 0.878906 7.97074 0.878906H7.02935C6.75258 0.878906 6.52737 1.10408 6.52737 1.38085V2.02972C6.52737 2.23014 6.39179 2.40516 6.19772 2.45522C5.72651 2.57684 5.27476 2.76437 4.85502 3.0126C4.68229 3.1147 4.46241 3.08692 4.32056 2.94507L3.86095 2.48543C3.66278 2.28703 3.34453 2.29163 3.15126 2.48522L2.48543 3.15103C2.2926 3.34362 2.28615 3.66188 2.48525 3.86074L2.94507 4.32056C3.08692 4.46241 3.1147 4.68231 3.0126 4.85499C2.76437 5.2747 2.57687 5.72646 2.45525 6.1977C2.40516 6.39176 2.23014 6.52731 2.02975 6.52731H1.38088C1.10411 6.52734 0.878906 6.75252 0.878906 7.02929V7.97071C0.878906 8.24748 1.10411 8.47266 1.38088 8.47266H2.02972C2.23014 8.47266 2.40513 8.60824 2.45522 8.80227C2.57684 9.27352 2.76437 9.72527 3.01257 10.145C3.11467 10.3177 3.08689 10.5376 2.94504 10.6794L2.4854 11.1391C2.28671 11.3375 2.29189 11.6557 2.48522 11.8488L3.151 12.5145C3.34397 12.7078 3.66226 12.7134 3.86071 12.5147L4.3205 12.0549C4.42503 11.9504 4.6425 11.8617 4.85499 11.9874Z" fill="#008FF7"/>
  <path d="M7.49998 10.5883C5.7971 10.5883 4.41174 9.20295 4.41174 7.5001C4.41174 5.79725 5.7971 4.41187 7.49998 4.41187C9.20286 4.41187 10.5882 5.79725 10.5882 7.5001C10.5882 9.20295 9.20286 10.5883 7.49998 10.5883ZM7.49998 5.24353C6.25567 5.24353 5.2434 6.25582 5.2434 7.5001C5.2434 8.74438 6.2557 9.75667 7.49998 9.75667C8.74425 9.75667 9.75655 8.74438 9.75655 7.5001C9.75655 6.25582 8.74428 5.24353 7.49998 5.24353Z" fill="#008FF7"/>
</svg>
