<svg width="500" height="500" viewBox="0 0 500 500" fill="none" xmlns="http://www.w3.org/2000/svg">
<path d="M250 500C388.071 500 500 388.071 500 250C500 111.929 388.071 0 250 0C111.929 0 0 111.929 0 250C0 388.071 111.929 500 250 500Z" fill="#4B5CF0"/>
<path d="M379.265 111.324V379.872H321.498V239.622H273.93C268.378 239.622 263.023 241.695 258.901 245.408C256.552 247.533 254.714 250.105 253.454 252.939C252.194 255.773 251.525 258.869 251.525 262.031V294.41C251.525 303.095 244.463 310.154 235.774 310.154H197.315C188.613 310.154 181.564 303.095 181.564 294.41V255.366C181.564 246.668 188.613 239.622 197.315 239.622H231.889C236.522 239.622 240.985 237.982 244.529 235.017C246.747 233.154 248.493 230.845 249.687 228.274C250.881 225.715 251.512 222.895 251.512 220.008V169.077H111.722V111.324H379.265Z" fill="white"/>
<path d="M181.577 345.131V345.735C181.577 365.047 165.905 380.699 146.597 380.699C127.289 380.699 111.617 365.047 111.617 345.735V345.131C111.617 325.819 127.276 310.167 146.597 310.167C156.245 310.167 165 314.077 171.326 320.4C177.666 326.737 181.577 335.475 181.577 345.131Z" fill="white"/>
</svg>
