<?xml version="1.0" encoding="utf-8"?>
<!-- Generator: Adobe Illustrator 24.1.3, SVG Export Plug-In . SVG Version: 6.00 Build 0)  -->
<svg version="1.1" id="Layer_1" xmlns="http://www.w3.org/2000/svg" xmlns:xlink="http://www.w3.org/1999/xlink" x="0px" y="0px"
	 viewBox="0 0 500 500" style="enable-background:new 0 0 500 500;" xml:space="preserve">
<style type="text/css">
	.st0{fill:var(--primary-color);}
	.st1{fill:#0CBFE8;}
</style>
<g>
	<g>
		<path class="st0" d="M200.6,192.6V10.9c0,0-58.8,29.3-58.8,91.6S200.6,192.6,200.6,192.6"/>
		<path class="st1" d="M200.6,10.9c0,0,58.8,29.3,58.8,91.6s-58.8,90.1-58.8,90.1V10.9z"/>
		<path class="st0" d="M337.8,278.1l80.8-45.9c0,0-28-18.8-55.6-3C335.4,245,337.8,278.1,337.8,278.1"/>
		<path class="st1" d="M418.6,232.2c0,0,1.9,33.5-25.9,49.3c-27.7,15.8-55-3.4-55-3.4L418.6,232.2z"/>
	</g>
	<path d="M422.6,224.9c-1.4-0.8-35.5-18.8-64.3-2.1c-23.1,13.3-27.7,40.1-28.6,51.1l-10.7,6.1c-5.3-5.2-12.5-8.5-20.5-8.5
		c-7.9,0-15.1,3.1-20.4,8.2l-48.8-28.2c0.6-2.3,0.8-4.6,0.8-7.1c0-13.5-9-24.8-21.3-28.3v-17.4c14.3-9.2,59.4-42.3,59.4-95.2
		c0-61.1-60.7-99.4-63.2-101L200.6,0l-4.3,2.7c-2.7,1.6-63.3,39.8-63.3,101c0,52.9,45.1,86.1,59.4,95.2v17.4
		c-12.3,3.5-21.3,14.8-21.3,28.3c0,2.4,0.3,4.8,0.8,7.1L123,279.9c-5.2-5.1-12.5-8.2-20.4-8.2c-16.2,0-29.5,13.2-29.5,29.5
		c0,13.5,9,24.8,21.3,28.3V388c-12.3,3.6-21.3,15-21.3,28.3c0,16.2,13.2,29.5,29.5,29.5c8.6,0,16.4-3.7,21.8-9.6l47.4,27.4
		c-0.6,2.2-0.8,4.6-0.8,7.1c0,16.2,13.2,29.5,29.5,29.5s29.5-13.2,29.5-29.5c0-2.4-0.3-4.8-0.8-7.1l47.4-27.4
		c5.3,5.9,13.1,9.6,21.8,9.6c16.2,0,29.5-13.2,29.5-29.5c0-13.5-9-24.8-21.3-28.3v-58.6c12.3-3.6,21.3-15,21.3-28.3
		c0-2.3-0.3-4.6-0.8-6.8l10.7-6.1c6.3,2.9,18.4,7.8,32.5,7.8c8.5,0,17.6-1.7,26.3-6.8c28.8-16.6,30.3-55.1,30.3-56.7l0.1-5
		L422.6,224.9z M306.6,311.4c-2.2,1.7-5.1,2.9-8.2,2.9c-1.6,0-3.1-0.3-4.6-0.8c-1.3-0.5-2.4-1.2-3.5-2c-2.6-2-4.4-5-4.9-8.5
		c-0.1-0.6-0.1-1.3-0.1-1.9c0-0.6,0-1.2,0.1-1.6c0.6-4.9,3.8-8.8,8.2-10.6c1.5-0.6,3.1-0.9,4.9-0.9c1.9,0,3.6,0.3,5.1,1
		c4.8,2,8,6.7,8,12.2c0,0.7-0.1,1.5-0.2,2.2C310.9,306.5,309.2,309.4,306.6,311.4 M311.6,416.3c0,7.3-5.9,13.2-13.2,13.2
		c-2.6,0-4.9-0.7-6.8-2c-3.7-2.3-6.3-6.5-6.3-11.3c0-0.1,0-0.2,0-0.3l0,0c0-1.4,0.3-2.8,0.8-4.1c0.8-2.3,2.3-4.4,4.3-5.9
		c1.6-1.4,3.7-2.2,5.9-2.7c0.7-0.1,1.5-0.2,2.2-0.2c3.1,0,5.9,1,8.2,2.9C309.6,408.4,311.6,412.1,311.6,416.3 M290.2,388
		c-4.1,1.2-7.7,3.1-10.8,5.8l-50-28.9l0,0c0.3-1.9,0.6-3.8,0.6-5.8c0-2.9-0.5-5.6-1.2-8.2l49.3-28.4c3.4,3.2,7.5,5.7,12.2,7V388
		H290.2z M200.6,483.6c-6.6,0-12.1-4.9-13-11.1c-0.1-0.7-0.1-1.3-0.1-2c0-5.6,3.4-10.2,8.2-12.2c1.5-0.6,3.2-0.9,5-0.9
		s3.4,0.3,5,0.9c4.8,2,8.2,6.7,8.2,12.2c0,0.7-0.1,1.4-0.1,2C212.7,478.9,207.2,483.6,200.6,483.6 M171.7,365l-50,28.8
		c-3.1-2.7-6.8-4.6-10.8-5.8v-58.6c4.6-1.3,8.8-3.8,12.3-7.1l49.2,28.4c-0.8,2.7-1.3,5.5-1.3,8.4C171.1,361.1,171.4,363,171.7,365
		L171.7,365z M115.9,416.3c0,4.8-2.6,8.9-6.3,11.3c-2,1.3-4.4,2-6.8,2c-7.3,0-13.2-5.9-13.2-13.2c0-4.2,2-7.9,5-10.3
		c2.2-1.7,5.1-2.9,8.2-2.9c0.8,0,1.5,0.1,2.3,0.2c2.2,0.3,4.2,1.3,5.8,2.7c2,1.5,3.4,3.6,4.3,5.9c0.5,1.3,0.7,2.7,0.8,4.1
		C115.9,416,115.9,416.1,115.9,416.3 M89.6,301.1c0-7.3,5.9-13.2,13.2-13.2c1.7,0,3.4,0.3,4.9,0.9c4.3,1.7,7.5,5.6,8.2,10.3
		c0.1,0.6,0.1,1.3,0.1,1.9c0,0.6-0.1,1.3-0.1,1.9c-0.5,3.5-2.3,6.4-4.9,8.5c-0.9,0.8-2.1,1.4-3.2,1.9c-1.5,0.6-3.1,0.9-4.9,0.9
		c-3.1,0-5.9-1-8.2-2.9C91.6,309,89.6,305.3,89.6,301.1 M192.5,234.3c2.2-1.7,5.1-2.8,8.1-2.8c3,0,5.9,1,8.1,2.8
		c2.6,2.1,4.4,5,4.9,8.5c0.1,0.6,0.1,1.3,0.1,2c0,4.2-2,7.9-5,10.3c-0.9,0.8-2.1,1.4-3.2,1.9c-1.5,0.6-3.1,0.9-4.9,0.9
		c-1.7,0-3.4-0.3-4.9-0.9c-1.2-0.5-2.3-1-3.2-1.9c-3-2.4-5-6.1-5-10.3c0-0.7,0.1-1.3,0.1-2C188.1,239.3,189.8,236.4,192.5,234.3
		 M213.7,359.5c-0.1,4.1-2.1,7.5-5,9.9c-0.6,0.5-1.3,0.9-1.9,1.3c-1.9,1-4.1,1.6-6.3,1.6s-4.3-0.6-6.1-1.5c-0.7-0.3-1.4-0.8-2-1.3
		c-3-2.3-4.9-5.9-5-10c0-0.1,0-0.2,0-0.3c0-1.2,0.1-2.3,0.5-3.4c0.7-2.8,2.3-5.2,4.5-7c1.4-1,3.1-2,4.9-2.4c1-0.2,2.1-0.5,3.2-0.5
		c1.2,0,2.3,0.1,3.4,0.5c1.7,0.5,3.4,1.3,4.8,2.3c2.1,1.7,3.8,4.1,4.5,6.8c0.3,1.2,0.5,2.3,0.5,3.6
		C213.8,359.2,213.8,359.4,213.7,359.5L213.7,359.5z M269.8,294c-0.6,2.3-0.8,4.6-0.8,7.1c0,2.6,0.3,5,0.9,7.3L220.2,337
		c-3.2-2.9-7.1-5.1-11.4-6.3V273c4.6-1.4,8.8-3.8,12.3-7.1L269.8,294z M149.3,103.8c0-43.4,38.2-74.7,51.3-84.2
		c13.1,9.4,51.3,40.7,51.3,84.2c0,36.3-26.8,62.5-43,75.2v-68.5c0-4.5-3.6-8.1-8.1-8.1c-4.5,0-8.1,3.6-8.1,8.1V179
		C176.1,166.3,149.3,140.1,149.3,103.8 M180.2,265.8c3.4,3.2,7.5,5.8,12.3,7.1v57.8c-4.3,1.3-8.1,3.4-11.3,6.3l-49.8-28.8
		c0.6-2.3,0.8-4.6,0.8-7.1s-0.3-4.9-0.8-7.1L180.2,265.8z M131.8,421.5c0.3-1.6,0.5-3.4,0.5-5.1c0-3.1-0.5-6.1-1.4-8.9l48.5-28
		c3.5,3.7,8.1,6.5,13.1,8v54.9c-4.6,1.4-8.9,3.8-12.3,7.2L131.8,421.5z M221,449.4c-3.4-3.4-7.7-5.8-12.3-7.2v-54.9
		c5.1-1.5,9.6-4.3,13.2-8l48.5,28c-0.9,2.9-1.4,5.9-1.4,9c0,1.7,0.1,3.5,0.5,5.1L221,449.4z M388.4,274.9
		c-10.8,6.3-23.1,5.1-32.2,2.7l16.4-9.4c3.9-2.2,5.2-7.2,3-11.1c-2.2-3.9-7.2-5.2-11.1-3l-16.2,9.4c2.4-9.2,7.7-20.3,18.4-26.4
		c15.5-8.9,34.8-3.2,43.6,0.2C408.7,246.5,404,265.8,388.4,274.9"/>
</g>
</svg>
