<?xml version="1.0" encoding="utf-8"?>
<!-- Generator: Adobe Illustrator 24.1.2, SVG Export Plug-In . SVG Version: 6.00 Build 0)  -->
<svg version="1.1" id="Layer_1" xmlns="http://www.w3.org/2000/svg" xmlns:xlink="http://www.w3.org/1999/xlink" x="0px" y="0px"
	 viewBox="0 0 75 75" style="enable-background:new 0 0 75 75;" xml:space="preserve">
<style type="text/css">
	.st0{fill:#999999;}
	.st1{fill:#FFFFFF;}
</style>
<g>
	<path class="st0" d="M0,75c0.5-1.6,1-3.1,1.6-4.7c1.2-3.5,2.4-7.1,3.6-10.6c0.5-1.5,1-2.9,1.5-4.3c0.1-0.3,0.1-0.8-0.1-1
		c-2.2-3.8-3.6-7.8-4.3-12.1c-0.5-2.9-0.6-5.9-0.3-8.9c0.4-4.9,1.7-9.6,4.1-13.9C8.3,15,11.5,11.2,15.5,8c4.2-3.3,8.9-5.6,14-6.9
		c3.5-0.9,7.1-1.2,10.8-1c7.1,0.4,13.6,2.6,19.3,6.7c5.6,3.9,9.7,9.1,12.5,15.4c1.3,3.1,2.3,6.4,2.6,9.8c0.2,2.3,0.4,4.6,0.2,6.9
		c-0.2,4.4-1.3,8.5-3.1,12.5c-2.1,4.7-5.2,8.8-9,12.2c-4.5,4-9.8,6.7-15.7,8.2c-3.8,0.9-7.6,1.2-11.4,0.9c-4.2-0.3-8.2-1.3-12.1-3
		c-0.5-0.2-1-0.3-1.4-0.6c-0.9-0.7-1.8-0.5-2.8-0.2C13.1,70.9,6.7,72.9,0.3,75C0.2,75,0.2,75,0,75z M49.4,56.7
		c0.8-0.1,1.7-0.2,2.5-0.4c2.6-0.5,4.9-1.8,6.6-3.8c1.5-1.8,1.8-4.1,1.7-6.4c0-0.6-0.4-1.1-1-1.4c-0.8-0.4-1.7-0.9-2.5-1.3
		c-2.2-1-4.4-2-6.6-3c-1-0.4-1.8-0.2-2.5,0.7c-0.8,1.1-1.7,2.1-2.6,3.2c-1,1.4-1.1,1.4-2.7,0.7C42.3,45,42.1,45,42,44.9
		c-5.3-2.3-9.4-6-12.3-11c-0.3-0.5-0.2-0.9,0.1-1.3c0.6-0.7,1.3-1.4,1.8-2.1c0.9-1.2,1.6-2.5,0.8-4c-0.4-0.8-0.8-1.7-1.1-2.6
		c-0.8-1.8-1.5-3.6-2.3-5.4c-0.4-0.8-0.9-1.6-2-1.7c-0.9-0.1-1.8-0.1-2.7-0.1c-1,0-1.9,0.3-2.6,0.9c-0.6,0.5-1.2,1.1-1.8,1.7
		c-2,2.3-2.9,5.1-2.8,8.1c0.1,3.1,1.2,5.9,2.8,8.5c2.6,4.2,5.6,8.1,9.3,11.4c2.2,2,4.6,3.9,7.3,5.2c2.4,1.1,4.9,2.1,7.4,3
		C45.8,56,47.6,56.6,49.4,56.7z"/>
	<path class="st1" d="M49.4,56.7c-1.9-0.1-3.6-0.6-5.4-1.2c-2.5-0.9-5-1.8-7.4-3c-2.7-1.3-5.1-3.2-7.3-5.2
		c-3.7-3.3-6.7-7.2-9.3-11.4c-1.6-2.6-2.7-5.4-2.8-8.5c-0.1-3,0.8-5.8,2.8-8.1c0.5-0.6,1.1-1.2,1.8-1.7c0.7-0.6,1.7-0.9,2.6-0.9
		c0.9,0,1.8,0.1,2.7,0.1c1,0.1,1.6,0.8,2,1.7c0.8,1.8,1.5,3.6,2.3,5.4c0.4,0.9,0.7,1.8,1.1,2.6c0.8,1.6,0,2.8-0.8,4
		c-0.5,0.8-1.2,1.4-1.8,2.1c-0.4,0.4-0.5,0.7-0.1,1.3c3,5,7,8.7,12.3,11c0.1,0.1,0.3,0.1,0.4,0.2c1.6,0.7,1.7,0.7,2.7-0.7
		c0.8-1.1,1.7-2.2,2.6-3.2c0.7-0.9,1.6-1.1,2.5-0.7c2.2,0.9,4.4,2,6.6,3c0.9,0.4,1.7,0.9,2.5,1.3c0.6,0.3,0.9,0.8,1,1.4
		c0.1,2.3-0.2,4.6-1.7,6.4c-1.7,2-4,3.2-6.6,3.8C51.1,56.5,50.3,56.5,49.4,56.7z"/>
</g>
</svg>
