<?xml version="1.0" encoding="utf-8"?>
<!-- Generator: Adobe Illustrator 24.1.2, SVG Export Plug-In . SVG Version: 6.00 Build 0)  -->
<svg version="1.1" id="Layer_1" xmlns="http://www.w3.org/2000/svg" xmlns:xlink="http://www.w3.org/1999/xlink" x="0px" y="0px"
	 viewBox="0 0 512 512" style="enable-background:new 0 0 512 512;" xml:space="preserve">
<style type="text/css">
	.st0{fill:#48a9a6;}
</style>
<g>
	<path class="st0" d="M40.3,298.7c28.6,0,56.9,0,85.5,0c0,28.5,0,56.8,0,85.6c28.8,0,57.1,0,85.8,0c0,28.9,0,57.3,0,86
		c-57.1,0-114.1,0-171.4,0C40.3,413.2,40.3,356.1,40.3,298.7z"/>
	<path class="st0" d="M298.2,470.1c0-28.6,0-56.9,0-85.6c28.5,0,56.8,0,85.6,0c0-28.8,0-57.1,0-85.8c28.9,0,57.3,0,85.9,0
		c0,57.1,0,114.1,0,171.4C412.7,470.1,355.6,470.1,298.2,470.1z"/>
	<path class="st0" d="M40.2,126c0-28.6,0-56.9,0-85.4c57.1,0,114.1,0,171.4,0c0,28.3,0,56.7,0,85.4C154.7,126,97.6,126,40.2,126z"/>
	<path class="st0" d="M298.2,126.1c0-28.6,0-56.9,0-85.4c57.2,0,114.1,0,171.4,0c0,28.3,0,56.7,0,85.4
		C412.6,126.1,355.6,126.1,298.2,126.1z"/>
</g>
</svg>
